HIERARCHY
ROOT Hips
{
     OFFSET 1.88212 96.90440 -13.34250
     CHANNELS 6 Xposition Yposition Zposition Zrotation Xrotation Yrotation
     JOINT Spine
     {
          OFFSET 0.00000 11.89050 0.00000
          CHANNELS 3 Zrotation Xrotation Yrotation
          JOINT Spine1
          {
               OFFSET -0.00000 25.65740 0.12766
               CHANNELS 3 Zrotation Xrotation Yrotation
               JOINT HEad
               {
                    OFFSET 0.00000 8.73416 0.01134
                    CHANNELS 3 Zrotation Xrotation Yrotation
                    End Site
                    {
                         OFFSET -0.29000 12.77420 2.51395
                    }
               }
               JOINT LeftShoulder1
               {
                    OFFSET 8.99000 -0.36225 -0.22000
                    CHANNELS 3 Zrotation Xrotation Yrotation
                    JOINT LeftArm
                    {
                         OFFSET 10.28270 -0.00338 0.32212
                         CHANNELS 3 Zrotation Xrotation Yrotation
                         JOINT LeftForeArm
                         {
                              OFFSET 32.76690 0.09914 -1.42434
                              CHANNELS 3 Zrotation Xrotation Yrotation
                              JOINT LeftHand
                              {
                                   OFFSET 27.56430 0.08536 1.02216
                                   CHANNELS 3 Zrotation Xrotation Yrotation
                                   End Site
                                   {
                                        OFFSET 16.74430 -0.60000 1.50291
                                   }
                              }
                         }
                    }
               }
               JOINT RightShoulder
               {
                    OFFSET -8.99000 -0.36225 -0.22000
                    CHANNELS 3 Zrotation Xrotation Yrotation
                    JOINT RightArm
                    {
                         OFFSET -10.28270 -0.00338 0.32212
                         CHANNELS 3 Zrotation Xrotation Yrotation
                         JOINT RightForeArm
                         {
                              OFFSET -32.89710 0.09914 -1.42434
                              CHANNELS 3 Zrotation Xrotation Yrotation
                              JOINT RightHand
                              {
                                   OFFSET -27.49210 0.08536 1.02216
                                   CHANNELS 3 Zrotation Xrotation Yrotation
                                   End Site
                                   {
                                        OFFSET -16.63120 -0.60000 1.50291
                                   }
                              }
                         }
                    }
               }
          }
     }
     JOINT LeftUpLeg
     {
          OFFSET 8.94580 -8.66707 0.10165
          CHANNELS 3 Zrotation Xrotation Yrotation
          JOINT LeftLeg
          {
               OFFSET 0.00000 -44.42270 1.37270
               CHANNELS 3 Zrotation Xrotation Yrotation
               JOINT LeftFoot
               {
                    OFFSET -0.25355 -42.09240 -1.46059
                    CHANNELS 3 Zrotation Xrotation Yrotation
                    JOINT LeftToes
                    {
                         OFFSET -0.04000 -4.41509 8.49910
                         CHANNELS 3 Zrotation Xrotation Yrotation
                         End Site
                         {
                              OFFSET 0.08000 -0.04745 9.77979
                         }
                    }
               }
          }
     }
     JOINT RightUpLeg
     {
          OFFSET -8.94580 -8.66707 0.10165
          CHANNELS 3 Zrotation Xrotation Yrotation
          JOINT RightLeg
          {
               OFFSET 0.00000 -44.42270 1.37270
               CHANNELS 3 Zrotation Xrotation Yrotation
               JOINT RightFoot
               {
                    OFFSET 0.25355 -42.09240 -1.46059
                    CHANNELS 3 Zrotation Xrotation Yrotation
                    JOINT RightToes
                    {
                         OFFSET 0.04000 -4.41509 8.49910
                         CHANNELS 3 Zrotation Xrotation Yrotation
                         End Site
                         {
                              OFFSET -0.08000 -0.13745 9.77979
                         }
                    }
               }
          }
     }
}
MOTION
Frames: 15
Frame Time: 0.01667
97.65211 92.00482 -21.79712 5.70622 3.68693 160.19476 5.60087 8.31119 -10.36450 -0.00417 -0.00391 -0.00275 -19.21687 11.46706 40.73364 -0.09137 5.10410 -2.29293 -22.82499 -62.23384 -20.27967 18.03704 31.04516 -86.33482 3.65317 24.92349 31.14536 8.87524 5.54607 -2.06140 65.76624 4.41734 76.68073 3.71406 30.23355 97.13802 0.38109 10.73013 4.29942 33.99971 -10.95452 -10.78217 -14.67681 6.29012 39.61451 -4.12090 -0.00395 -0.01561 2.97668 12.05144 -1.42276 -14.03935 -5.45892 5.46180 10.98784 33.23478 -19.64532 2.59325 -0.02348 0.02308 -1.54149 -2.66431 -11.69265 
96.48459 91.62801 -22.12441 5.94608 3.79024 159.62589 5.62266 9.24713 -11.33469 -0.00306 -0.00346 -0.00198 -19.44311 10.52609 41.86662 -0.79146 4.80919 -1.65690 -17.36393 -54.45910 -24.78773 16.19063 30.77453 -64.49374 -4.70613 10.86018 31.42063 8.51701 5.29092 -1.72106 66.14589 4.69397 76.77872 3.55383 30.29321 97.86108 0.40653 10.57516 4.24073 32.92298 -11.67270 -8.20304 -14.07349 8.82329 37.28477 -6.59499 -0.00463 -0.02080 -12.33502 -3.24351 -3.32286 -14.42630 -9.49035 2.99041 12.14357 38.55345 -19.73956 2.31408 -0.01604 0.01632 -0.52801 0.19946 -12.10547 
95.18706 91.14156 -22.36390 6.13201 3.91809 158.98555 5.54923 10.12308 -12.12601 -0.00158 -0.00306 -0.00062 -19.64355 9.63194 42.97092 -1.71531 4.56892 -0.65899 -12.98757 -46.83625 -31.11136 9.82316 29.99743 -40.97536 12.50603 12.39591 14.01851 8.10963 5.09794 -1.26397 66.69563 4.87134 76.92090 3.39439 30.35489 98.39233 0.57052 10.48478 4.01449 31.84845 -12.97974 -4.63378 -13.08159 12.46887 34.13535 -9.26668 -0.00382 -0.02738 -2.04580 1.68022 -1.71968 -14.99103 -14.00306 -0.14150 12.45296 44.63146 -18.36082 2.86992 -0.00659 0.01995 -1.45735 -3.87368 -10.18092 
93.82607 90.57583 -22.53508 6.24576 4.07274 158.28368 5.37602 10.92948 -12.72745 -0.00156 -0.00174 0.00106 -19.84851 8.79874 44.01354 -2.47492 4.33077 0.64779 -9.59324 -39.96128 -39.11742 1.36582 23.11504 -17.88639 -5.05085 1.05974 12.04547 7.69815 4.93751 -0.68114 67.34862 4.97535 77.06802 3.20215 30.40946 98.68904 0.71271 10.33522 3.89229 30.99406 -14.18554 -1.16429 -11.96391 16.10049 31.07932 -12.02592 -0.00247 -0.03258 -4.89506 -3.77127 -2.87843 -15.65832 -18.00519 -3.05280 12.18745 50.21649 -16.42366 3.50859 -0.00762 0.01591 -1.32988 -4.35081 -10.02326 
92.46141 89.97668 -22.68836 6.28626 4.24912 157.52032 5.10149 11.68310 -13.14638 -0.00332 0.00202 0.00243 -20.05635 8.00299 44.97557 -2.57180 4.08076 1.38157 -6.96944 -35.72746 -44.06365 -2.30417 11.70893 -2.98385 19.34287 -0.38178 3.59641 7.34779 4.78086 -0.02901 68.01042 5.04720 77.16438 2.96732 30.44402 98.84285 0.92661 10.22255 3.70906 30.31378 -15.31459 2.17407 -10.78857 19.64907 28.16914 -14.76497 0.00018 -0.03523 -1.61835 -4.46494 -2.76795 -16.33724 -21.49869 -5.70532 11.32023 55.14360 -14.06139 4.31670 -0.00915 0.01252 -1.62919 -6.20429 -9.80389 
91.12935 89.39138 -22.87469 6.26386 4.43503 156.69319 4.71989 12.38413 -13.36776 -0.00380 0.00392 0.00433 -20.23417 7.24911 45.82710 -2.59166 3.86015 1.89151 -5.34612 -33.10222 -46.71483 -1.29695 -0.68835 5.21100 5.76535 1.03301 -18.33922 7.05913 4.64059 0.72301 68.66541 5.01377 77.18242 2.72922 30.43569 98.91196 1.10963 10.06071 3.64762 29.76778 -16.37700 5.35010 -9.60920 23.06989 25.46059 -17.42933 0.00220 -0.03632 -1.51947 -7.66766 -3.52995 -16.94437 -24.47253 -8.05608 9.81149 59.28030 -11.37309 4.95316 -0.01034 0.00580 -1.56728 -6.77055 -10.19459 
89.84665 88.85629 -23.12693 6.20047 4.61248 155.80243 4.24901 13.02929 -13.37535 -0.00279 0.00501 0.00636 -20.34638 6.54004 46.53682 -2.76236 3.66876 2.29827 -4.89063 -31.25115 -47.80750 1.76419 -12.17177 6.06816 11.88499 -9.98033 -16.98967 6.85877 4.53343 1.54722 69.27110 4.85927 77.12320 2.51674 30.37802 98.95663 1.33223 9.90253 3.57781 29.33422 -17.36813 8.33472 -8.47188 26.34233 23.00454 -19.99221 0.00430 -0.03641 0.09692 -9.81966 -3.83027 -17.42623 -26.92440 -10.07837 7.69443 62.54729 -8.44569 5.45127 -0.01114 0.00079 -1.53059 -7.33072 -10.82642 
88.62146 88.39380 -23.45566 6.11480 4.76531 154.85600 3.72003 13.61165 -13.15847 -0.00178 0.00469 0.00839 -20.37245 5.88523 47.07568 -2.84494 3.51340 2.75616 -8.68221 -31.14835 -46.19756 3.64473 -18.18527 -2.84385 7.07257 10.86855 -15.07281 6.76567 4.47163 2.43035 69.78689 4.55643 76.96181 2.34381 30.28202 99.04068 1.54451 9.71435 3.57912 28.99894 -18.27936 11.10252 -7.40920 29.44993 20.83580 -22.45369 0.00619 -0.03586 0.99634 -12.64503 -4.36713 -17.76381 -28.86209 -11.76631 5.05978 64.93150 -5.34635 5.80183 -0.01187 -0.00218 -1.26235 -7.33314 -11.57461 
87.46061 88.01055 -23.85509 6.01990 4.87966 153.87218 3.15324 14.13312 -12.72357 -0.00117 0.00445 0.00992 -20.28816 5.28312 47.42521 -2.98153 3.37905 3.10735 -15.01410 -33.17394 -43.38798 1.74822 -18.18813 -18.08100 13.94010 -6.25555 -23.24620 6.75761 4.44049 3.32710 70.22971 4.13557 76.69200 2.21902 30.16543 99.19791 1.78539 9.54360 3.54361 28.75360 -19.10509 13.63240 -6.44215 32.37407 18.96964 -24.82491 0.00798 -0.03463 2.31645 -15.23572 -4.73380 -17.96239 -30.30844 -13.13227 2.08491 66.47140 -2.16459 6.12717 -0.01219 -0.00271 -0.96157 -7.25538 -12.16778 
86.36550 87.70935 -24.30662 5.92518 4.93792 152.87228 2.56818 14.59093 -12.08376 -0.00045 0.00390 0.01103 -20.07392 4.73463 47.57336 -2.99840 3.24927 3.34972 -22.86453 -37.50123 -40.55544 -2.00378 -12.32250 -35.75776 14.62916 13.46297 -7.14178 6.83594 4.41924 4.21581 70.60217 3.60866 76.29988 2.14380 30.04395 99.44768 2.00943 9.38806 3.51821 28.59503 -19.84975 15.91332 -5.58144 35.08688 17.40639 -27.11774 0.00945 -0.03257 3.51310 -17.91725 -5.18268 -18.03627 -31.26209 -14.19653 -1.00711 65.60643 -0.01907 14.03687 -0.00788 -0.16212 -8.01917 -5.39824 -11.42722 
85.33814 87.48602 -24.79781 5.83715 4.92684 151.88780 1.97379 14.98641 -11.26632 0.00094 0.00315 0.01173 -19.70465 4.23962 47.51405 -2.91846 3.10502 3.43981 -31.70497 -43.77325 -38.37951 -5.36242 -2.04574 -52.54721 18.75380 -6.45836 -20.54120 7.00779 4.38610 5.07028 70.91505 2.98486 75.78740 2.12562 29.92551 99.79259 2.23479 9.28763 3.44929 28.51745 -20.51836 17.93271 -4.83578 37.55195 16.13557 -29.33852 0.01047 -0.02969 4.83222 -20.37245 -5.59661 -18.00781 -31.77004 -14.98846 -3.67200 64.99612 2.11212 9.94437 -0.03214 0.03411 -3.11396 -4.46765 -10.90185 
84.38994 87.34651 -25.34552 5.77243 4.84369 150.96823 1.40203 15.32916 -10.32946 0.00295 0.00210 0.01199 -19.17655 3.79650 47.24990 -2.58877 2.93738 3.29113 -41.94664 -51.32277 -37.97966 -7.35175 10.28498 -67.48333 15.44676 7.36441 -6.47429 7.27401 4.32510 5.85867 71.17838 2.28172 75.17101 2.16364 29.81458 100.23244 2.43595 9.24593 3.38411 28.50533 -21.09029 19.65832 -4.21224 39.72341 15.13623 -31.48940 0.01102 -0.02637 6.10951 -22.63033 -6.04769 -17.88723 -31.00191 -14.83901 -4.00418 63.48801 2.39845 11.94027 0.00536 0.00122 -4.33226 -4.16565 -9.99081 
83.51187 87.27484 -25.95070 5.73231 4.70878 150.08182 0.82667 15.64860 -9.36796 0.00301 -0.00005 0.00396 -18.55696 3.34863 46.93901 -2.03815 2.74898 2.93384 -54.16153 -59.16188 -40.21144 -7.82553 22.91945 -81.51378 16.31180 12.47284 -0.28697 7.57370 4.23715 6.60889 71.44630 1.53401 74.54286 2.27866 29.69036 100.71255 2.64804 9.22369 3.30547 28.56603 -21.57618 21.30655 -4.12679 41.67167 14.52187 -30.09666 -0.00476 0.01573 4.20099 -24.82247 -6.60628 -17.75537 -29.98470 -14.43479 -3.72359 61.80400 2.16712 13.08862 0.00315 -0.00293 -4.71692 -3.94573 -9.08883 
82.70090 87.25543 -26.60218 5.71737 4.53187 149.24326 0.27001 15.93065 -8.38343 0.00307 0.00019 0.00396 -17.87701 2.92872 46.55283 -1.16580 2.54738 2.88954 -70.90564 -66.32327 -47.40621 -6.58107 35.46986 -94.51165 20.93787 13.35840 0.32447 7.95294 4.13728 7.35110 71.67010 0.72064 73.87111 2.41226 29.57247 101.23274 2.84510 9.22213 3.25286 28.69213 -21.97706 22.86436 -3.97082 43.49914 13.91734 -28.73561 -0.00439 0.01837 2.24852 -26.86149 -7.17756 -17.63322 -28.77844 -13.76924 -2.95278 59.94456 1.52418 13.67137 -0.00114 0.00012 -4.61809 -3.84134 -8.09315 
81.95889 87.27170 -27.27207 5.73209 4.32639 148.47072 -0.25153 16.17063 -7.38233 0.00281 0.00064 0.00456 -17.15900 2.56146 46.08900 -0.16070 2.34060 3.36100 -92.47839 -71.09019 -60.72832 -3.99794 46.48553 -106.63702 27.86411 11.93474 -1.93473 8.40496 4.03909 8.12557 71.86057 -0.16728 73.16444 2.53399 29.47302 101.75631 3.01139 9.24146 3.25737 28.86582 -22.28937 24.30970 -3.76676 45.16203 13.32207 -27.38025 -0.00337 0.01757 0.27100 -28.65046 -7.77358 -17.54022 -27.41816 -12.84381 -1.83726 57.93336 0.58031 13.85375 -0.00335 0.00214 -4.24602 -3.83066 -7.05415 
